<svg width="100" height="100" viewBox="0 0 100 100" fill="none" xmlns="http://www.w3.org/2000/svg">
<circle cx="50" cy="50" r="50" fill="#121212"/>
<path d="M34.0547 54.6719C37.8828 54.6719 41.0339 53.6562 43.5078 51.625C46.0078 49.5938 47.375 46.7812 47.6094 43.1875H49.7188C49.5104 47.276 47.9349 50.5703 44.9922 53.0703C42.0495 55.5443 38.4036 56.7812 34.0547 56.7812C28.7682 56.7812 24.5625 54.8672 21.4375 51.0391C18.3385 47.2109 16.7891 42.0156 16.7891 35.4531V34.0469C16.7891 27.6406 18.3385 22.5234 21.4375 18.6953C24.5625 14.8672 28.7422 12.9531 33.9766 12.9531C38.4557 12.9531 42.1536 14.2943 45.0703 16.9766C47.987 19.6589 49.5365 23.2266 49.7188 27.6797H47.6094C47.4271 23.8776 46.0859 20.8307 43.5859 18.5391C41.112 16.2214 37.9089 15.0625 33.9766 15.0625C29.263 15.0625 25.5651 16.7682 22.8828 20.1797C20.2266 23.5651 18.8984 28.2786 18.8984 34.3203V35.6875C18.8984 41.599 20.2396 46.2474 22.9219 49.6328C25.6302 52.9922 29.3411 54.6719 34.0547 54.6719Z" fill="#FEFEFE"/>
<path d="M45.7656 65.4375C45.7656 58.6927 47.1849 53.4323 50.0234 49.6562C52.862 45.8542 56.7552 43.9531 61.7031 43.9531C64.8802 43.9531 67.6797 44.6693 70.1016 46.1016C72.5495 47.5339 74.5286 49.6693 76.0391 52.5078V27H78.1484V87H76.0391V80.2422C74.6068 82.638 72.6406 84.5 70.1406 85.8281C67.6406 87.1302 64.8021 87.7812 61.625 87.7812C56.7292 87.7812 52.862 85.8411 50.0234 81.9609C47.1849 78.0807 45.7656 72.7552 45.7656 65.9844V65.4375ZM47.9531 66.2578C47.9531 72.2474 49.138 76.987 51.5078 80.4766C53.8776 83.9401 57.237 85.6719 61.5859 85.6719C65.0755 85.6719 68.0573 84.9036 70.5312 83.3672C73.0052 81.8047 74.8411 79.526 76.0391 76.5312V56.7266C73.6172 49.6172 68.8255 46.0625 61.6641 46.0625C57.3411 46.0625 53.9688 47.7682 51.5469 51.1797C49.151 54.5911 47.9531 59.6172 47.9531 66.2578Z" fill="#FEFEFE"/>
</svg>
