<svg
			width="100"
			height="118"
			viewBox="0 0 100 118"
			fill="none"
			xmlns="http://www.w3.org/2000/svg"
		>
			<circle cx="50" cy="68" r="50" fill="#121212" />
			<path
				d="M34.0547 72.6719C37.8828 72.6719 41.0339 71.6562 43.5078 69.625C46.0078 67.5938 47.375 64.7812 47.6094 61.1875H49.7188C49.5104 65.276 47.9349 68.5703 44.9922 71.0703C42.0495 73.5443 38.4036 74.7812 34.0547 74.7812C28.7682 74.7812 24.5625 72.8672 21.4375 69.0391C18.3385 65.2109 16.7891 60.0156 16.7891 53.4531V52.0469C16.7891 45.6406 18.3385 40.5234 21.4375 36.6953C24.5625 32.8672 28.7422 30.9531 33.9766 30.9531C38.4557 30.9531 42.1536 32.2943 45.0703 34.9766C47.987 37.6589 49.5365 41.2266 49.7188 45.6797H47.6094C47.4271 41.8776 46.0859 38.8307 43.5859 36.5391C41.112 34.2214 37.9089 33.0625 33.9766 33.0625C29.263 33.0625 25.5651 34.7682 22.8828 38.1797C20.2266 41.5651 18.8984 46.2786 18.8984 52.3203V53.6875C18.8984 59.599 20.2396 64.2474 22.9219 67.6328C25.6302 70.9922 29.3411 72.6719 34.0547 72.6719Z"
				fill="#FEFEFE"
			/>
			<path
				d="M45.7656 83.4375C45.7656 76.6927 47.1849 71.4323 50.0234 67.6562C52.862 63.8542 56.7552 61.9531 61.7031 61.9531C64.8802 61.9531 67.6797 62.6693 70.1016 64.1016C72.5495 65.5339 74.5286 67.6693 76.0391 70.5078V45H78.1484V105H76.0391V98.2422C74.6068 100.638 72.6406 102.5 70.1406 103.828C67.6406 105.13 64.8021 105.781 61.625 105.781C56.7292 105.781 52.862 103.841 50.0234 99.9609C47.1849 96.0807 45.7656 90.7552 45.7656 83.9844V83.4375ZM47.9531 84.2578C47.9531 90.2474 49.138 94.987 51.5078 98.4766C53.8776 101.94 57.237 103.672 61.5859 103.672C65.0755 103.672 68.0573 102.904 70.5312 101.367C73.0052 99.8047 74.8411 97.526 76.0391 94.5312V74.7266C73.6172 67.6172 68.8255 64.0625 61.6641 64.0625C57.3411 64.0625 53.9688 65.7682 51.5469 69.1797C49.151 72.5911 47.9531 77.6172 47.9531 84.2578Z"
				fill="#FEFEFE"
			/>
		</svg>